<svg width="24" height="24" viewBox="0 0 24 24" fill="none" xmlns="http://www.w3.org/2000/svg">
<g filter="url(#filter0_d_23_183)">
<path d="M17.1469 14.0844C15.7594 15.2563 13.9594 16 12 16C9.08439 16 6.52498 14.3938 5.13751 12.05L5.65695 9.65559L7.95939 9.22815C8.49376 10.9531 10.1062 12.2188 12 12.2188C12.9187 12.2188 13.7719 11.9282 14.475 11.4125L16.6875 11.75L17.1469 14.0844Z" fill="#59C36A"/>
<path d="M17.1469 14.0844L16.6875 11.75L14.475 11.4125C13.7719 11.9281 12.9187 12.2187 12 12.2187V16C13.9594 16 15.7594 15.2562 17.1469 14.0844Z" fill="#00A66C"/>
<path d="M7.78125 7.99995C7.78125 8.43117 7.84687 8.84367 7.95937 9.22808L5.1375 12.05C4.43438 10.8687 4 9.48117 4 7.99995C4 6.51867 4.43438 5.1312 5.1375 3.94995L7.40228 4.33973L7.95937 6.77183C7.84687 7.15617 7.78125 7.56867 7.78125 7.99995Z" fill="#FFDA2D"/>
<path d="M20 8C20 10.4375 18.8719 12.6219 17.1469 14.0844L14.475 11.4125C15.0187 11.0187 15.4781 10.4937 15.7781 9.875H12C11.7375 9.875 11.5312 9.66872 11.5312 9.40625V6.59375C11.5312 6.33122 11.7375 6.125 12 6.125H19.4C19.625 6.125 19.8219 6.28434 19.8594 6.50934C19.9531 6.99687 20 7.50309 20 8Z" fill="#4086F4"/>
<path d="M15.7782 9.875C15.4782 10.4937 15.0187 11.0187 14.475 11.4125L17.1469 14.0844C18.8719 12.6219 20 10.4375 20 8C20 7.50309 19.9531 6.99687 19.8593 6.50934C19.8219 6.28434 19.625 6.125 19.4 6.125H12V9.875H15.7782Z" fill="#376AED"/>
<path d="M17.2781 2.23434C17.2875 2.36559 17.2313 2.4875 17.1469 2.58122L15.1406 4.57809C14.9813 4.74684 14.7188 4.76559 14.5313 4.62497C13.7906 4.07187 12.9187 3.78125 12 3.78125C10.1062 3.78125 8.49376 5.04684 7.95939 6.77187L5.13751 3.95C6.52498 1.60625 9.08439 0 12 0C13.8656 0 15.6844 0.6875 17.1094 1.88747C17.2125 1.97187 17.2688 2.10309 17.2781 2.23434Z" fill="#FF7F23"/>
<path d="M14.5313 4.62497C14.7188 4.76563 14.9812 4.74684 15.1406 4.57809L17.1469 2.58122C17.2313 2.4875 17.2875 2.36563 17.2781 2.23434C17.2687 2.10306 17.2125 1.97188 17.1094 1.88747C15.6844 0.6875 13.8656 0 12 0V3.78125C12.9187 3.78125 13.7906 4.07188 14.5313 4.62497Z" fill="#F03800"/>
</g>
<defs>
<filter id="filter0_d_23_183" x="0" y="0" width="24" height="24" filterUnits="userSpaceOnUse" color-interpolation-filters="sRGB">
<feFlood flood-opacity="0" result="BackgroundImageFix"/>
<feColorMatrix in="SourceAlpha" type="matrix" values="0 0 0 0 0 0 0 0 0 0 0 0 0 0 0 0 0 0 127 0" result="hardAlpha"/>
<feOffset dy="4"/>
<feGaussianBlur stdDeviation="2"/>
<feComposite in2="hardAlpha" operator="out"/>
<feColorMatrix type="matrix" values="0 0 0 0 0 0 0 0 0 0 0 0 0 0 0 0 0 0 0.25 0"/>
<feBlend mode="normal" in2="BackgroundImageFix" result="effect1_dropShadow_23_183"/>
<feBlend mode="normal" in="SourceGraphic" in2="effect1_dropShadow_23_183" result="shape"/>
</filter>
</defs>
</svg>
